<?xml version="1.0" encoding="UTF-8"?>
<svg version="1.1" xmlns="http://www.w3.org/2000/svg" width="500" height="500">
<path d="M0 0 C165 0 330 0 500 0 C500 165 500 330 500 500 C335 500 170 500 0 500 C0 335 0 170 0 0 Z " fill="#000000" transform="translate(0,0)"/>
<path d="M0 0 C149.82 0 299.64 0 454 0 C454 52.14 454 104.28 454 158 C304.18 158 154.36 158 0 158 C0 105.86 0 53.72 0 0 Z " fill="#030303" transform="translate(23,172)"/>
<path d="M0 0 C1.12067871 0.00424484 2.24135742 0.00848969 3.39599609 0.01286316 C6.95174874 0.02956564 10.50692059 0.06720307 14.0625 0.10546875 C16.48306469 0.12052644 18.90363833 0.13421295 21.32421875 0.14648438 C27.23737929 0.17688102 33.14929468 0.23562085 39.0625 0.29296875 C39.0625 11.51296875 39.0625 22.73296875 39.0625 34.29296875 C34.69257813 34.33164063 34.69257813 34.33164063 30.234375 34.37109375 C27.41119748 34.40951225 24.58820273 34.45467309 21.76513672 34.50048828 C19.80396253 34.52870428 17.84267449 34.54991569 15.88134766 34.56396484 C13.06093023 34.58538574 10.24188257 34.63203084 7.421875 34.68359375 C6.54569519 34.68482239 5.66951538 34.68605103 4.76678467 34.68731689 C-0.17790605 34.80371886 -0.17790605 34.80371886 -4.48925781 37.06713867 C-6.0538417 39.47177646 -6.45081678 40.67737324 -6.46875 43.515625 C-6.47390625 44.30130859 -6.4790625 45.08699219 -6.484375 45.89648438 C-6.46890625 46.70794922 -6.4534375 47.51941406 -6.4375 48.35546875 C-6.45296875 49.17080078 -6.4684375 49.98613281 -6.484375 50.82617188 C-6.47328535 55.38638948 -6.47328535 55.38638948 -4.46875 59.3515625 C-0.65085786 60.77148843 3.03566439 60.52528619 7.0625 60.29296875 C7.12308594 59.00519531 7.18367188 57.71742188 7.24609375 56.390625 C7.33048247 54.71222716 7.4151313 53.03384239 7.5 51.35546875 C7.53931641 50.50533203 7.57863281 49.65519531 7.61914062 48.77929688 C7.68198242 47.5659668 7.68198242 47.5659668 7.74609375 46.328125 C7.78275146 45.57926025 7.81940918 44.83039551 7.85717773 44.05883789 C8.0625 42.29296875 8.0625 42.29296875 9.0625 41.29296875 C11.19603174 41.19293586 13.33287542 41.16215827 15.46875 41.16015625 C16.76941406 41.15886719 18.07007813 41.15757812 19.41015625 41.15625 C20.43133545 41.15939209 20.43133545 41.15939209 21.47314453 41.16259766 C23.55378515 41.16794635 25.63420989 41.16265195 27.71484375 41.15625 C29.66583984 41.15818359 29.66583984 41.15818359 31.65625 41.16015625 C32.85958984 41.16128418 34.06292969 41.16241211 35.30273438 41.16357422 C38.0625 41.29296875 38.0625 41.29296875 39.0625 42.29296875 C39.15545815 43.73586662 39.17996513 45.1832666 39.17602539 46.62915039 C39.17591209 48.01046898 39.17591209 48.01046898 39.17579651 49.41969299 C39.17063522 50.42072556 39.16547394 51.42175812 39.16015625 52.453125 C39.1587413 53.47272812 39.15732635 54.49233124 39.15586853 55.54283142 C39.15025097 58.81373982 39.1376955 62.08458088 39.125 65.35546875 C39.11998726 67.56705631 39.11542396 69.77864493 39.11132812 71.99023438 C39.10027584 77.42450232 39.08352063 82.85873072 39.0625 88.29296875 C31.94583198 88.34385154 24.82921124 88.37877901 17.71240234 88.40283203 C15.2934392 88.41286385 12.8744881 88.42649246 10.45556641 88.44384766 C6.97034727 88.46821982 3.48528907 88.47948033 0 88.48828125 C-1.07427246 88.49860382 -2.14854492 88.50892639 -3.25537109 88.51956177 C-14.26581115 88.52119169 -22.63283573 86.39204614 -30.734375 78.5546875 C-38.96824249 69.36291959 -39.16953514 60.23796845 -39.23266602 48.42089844 C-39.2441401 46.92959063 -39.26451913 45.4383224 -39.29418945 43.94726562 C-39.55132139 30.99586034 -37.81065579 19.38593753 -28.9375 9.29296875 C-20.04305976 1.75167155 -11.37231417 -0.16391305 0 0 Z " fill="#FCFCFC" transform="translate(101.9375,203.70703125)"/>
<path d="M0 0 C8.25 0 16.5 0 25 0 C25.33 8.58 25.66 17.16 26 26 C27.65 26.33 29.3 26.66 31 27 C32.77490546 25.22509454 32.23499973 22.62215098 32.31640625 20.21484375 C32.35451416 19.16159912 32.39262207 18.10835449 32.43188477 17.02319336 C32.47498779 15.67491455 32.51809082 14.32663574 32.5625 12.9375 C32.706875 8.668125 32.85125 4.39875 33 0 C44.55 0 56.1 0 68 0 C68 29.04 68 58.08 68 88 C56.45 88 44.9 88 33 88 C32.625 78.375 32.625 78.375 32.52197266 75.37646484 C32.30773329 70.58079913 31.83985064 66.50239872 30 62 C29.01 62 28.02 62 27 62 C26.00544091 64.98367726 25.80440368 67.2004192 25.68359375 70.32421875 C25.62643188 71.71386841 25.62643188 71.71386841 25.56811523 73.1315918 C25.50346069 74.89176636 25.50346069 74.89176636 25.4375 76.6875 C25.293125 80.420625 25.14875 84.15375 25 88 C16.75 88 8.5 88 0 88 C-0.14280185 81.23731245 -0.28535088 74.47462056 -0.42724609 67.71191406 C-0.47559826 65.41112965 -0.52409993 63.11034837 -0.57275391 60.80957031 C-0.64264564 57.50326334 -0.71200045 54.19694548 -0.78125 50.890625 C-0.80312378 49.86132874 -0.82499756 48.83203247 -0.84753418 47.77154541 C-0.86755493 46.81085144 -0.88757568 45.85015747 -0.90820312 44.86035156 C-0.92596802 44.01651917 -0.94373291 43.17268677 -0.96203613 42.30328369 C-1.04215864 37.44221798 -0.91983764 32.59272682 -0.78125 27.734375 C-0.75905396 26.94097717 -0.73685791 26.14757935 -0.71398926 25.33013916 C-0.64318189 22.80341112 -0.57160121 20.27670566 -0.5 17.75 C-0.45177188 16.0338556 -0.40359421 14.31770978 -0.35546875 12.6015625 C-0.23765862 8.40102203 -0.11880239 4.20051299 0 0 Z " fill="#FCFCFC" transform="translate(146,204)"/>
<path d="M0 0 C1.14390953 -0.00574036 1.14390953 -0.00574036 2.31092834 -0.01159668 C3.91001724 -0.01429606 5.5091518 -0.0070745 7.1081543 0.00976562 C9.52690246 0.03117694 11.9426713 0.00991468 14.36132812 -0.015625 C24.01644099 -0.03457536 32.22135598 0.42999376 40.18359375 6.50390625 C40.77398437 7.19355469 41.364375 7.88320312 41.97265625 8.59375 C42.57851563 9.26535156 43.184375 9.93695313 43.80859375 10.62890625 C49.49862414 19.85967607 50.18560302 28.87418228 50.00927734 39.44799805 C49.97254657 41.72555094 49.96826083 44.00147697 49.96875 46.27929688 C49.88671979 58.57722892 48.48353651 69.87149788 39.89453125 79.42578125 C30.87810311 87.44715313 22.88637837 88.7766279 11.08276367 88.88134766 C9.73004827 88.89779895 8.37741583 88.92494443 7.02514648 88.96337891 C5.04856527 89.0190982 3.07103768 89.0370419 1.09375 89.0546875 C-0.08002197 89.07450684 -1.25379395 89.09432617 -2.46313477 89.11474609 C-6.40234375 88.53125 -6.40234375 88.53125 -17.40234375 83.53125 C-17.40234375 57.46125 -17.40234375 31.39125 -17.40234375 4.53125 C-10.47098847 1.45064765 -7.01033557 -0.07998793 0 0 Z " fill="#FAFAFA" transform="translate(236.40234375,203.46875)"/>
<path d="M0 0 C2.41580937 0.07529669 4.8318431 0.14372824 7.24804688 0.20507812 C13.15456302 0.35715115 19.02988303 0.65010242 24.9375 0.9375 C24.9375 9.8475 24.9375 18.7575 24.9375 27.9375 C22.08480469 27.91429687 19.23210937 27.89109375 16.29296875 27.8671875 C13.53280075 27.85159399 10.77263764 27.83944753 8.01245117 27.82763672 C6.09283251 27.81757361 4.17322919 27.80392184 2.25366211 27.78662109 C-0.50410752 27.76238636 -3.26167464 27.75102008 -6.01953125 27.7421875 C-6.87899857 27.73186493 -7.73846588 27.72154236 -8.62397766 27.71090698 C-9.42458115 27.71075592 -10.22518463 27.71060486 -11.05004883 27.71044922 C-11.7539827 27.706008 -12.45791656 27.70156677 -13.18318176 27.69699097 C-15.3958238 27.83862227 -15.3958238 27.83862227 -18.0625 29.9375 C-17.5675 31.9175 -17.5675 31.9175 -17.0625 33.9375 C-16.50377197 33.95208252 -15.94504395 33.96666504 -15.36938477 33.98168945 C-12.78729948 34.05710798 -10.20637816 34.15344881 -7.625 34.25 C-6.30725586 34.28383789 -6.30725586 34.28383789 -4.96289062 34.31835938 C4.28770374 34.69384476 11.39233791 36.61045982 18.2109375 43.03515625 C24.70658525 50.1921256 25.48291572 57.72875652 25.28125 67.09375 C24.67943879 73.82309353 22.09310125 79.26079089 17.125 83.875 C8.5591386 89.4176162 0.89363845 89.34441177 -9.0625 89.23046875 C-10.50837766 89.2248643 -11.95426106 89.22059822 -13.40014648 89.21760559 C-17.1813771 89.20622344 -20.96225474 89.17681474 -24.74334717 89.14349365 C-28.61140165 89.11264857 -32.47951389 89.0990696 -36.34765625 89.08398438 C-43.91943068 89.05193751 -51.49091563 89.00082309 -59.0625 88.9375 C-56.95611732 83.87528751 -54.63266027 78.99326807 -52.11328125 74.125 C-51.54881538 73.02792725 -51.54881538 73.02792725 -50.97294617 71.90869141 C-50.17815708 70.36514306 -49.3822238 68.8221834 -48.58520508 67.27978516 C-47.39335708 64.97302912 -46.20514923 62.664429 -45.01757812 60.35546875 C-40.11540029 50.83792432 -35.1285241 41.36880762 -30.0625 31.9375 C-34.3525 31.9375 -38.6425 31.9375 -43.0625 31.9375 C-41.9250758 29.57897188 -40.77766036 27.2260785 -39.625 24.875 C-39.31884766 24.23755859 -39.01269531 23.60011719 -38.69726562 22.94335938 C-37.98625997 21.50063916 -37.23387905 20.07796473 -36.45336914 18.67163086 C-35.32441944 16.45237377 -34.50739533 14.39822394 -33.68530273 12.06469727 C-27.48487942 -3.37794842 -14.57623635 -0.78718211 0 0 Z " fill="#FCFCFC" transform="translate(358.0625,203.0625)"/>
<path d="M0 0 C149.82 0 299.64 0 454 0 C454 52.14 454 104.28 454 158 C304.18 158 154.36 158 0 158 C0 105.86 0 53.72 0 0 Z M4 3 C4 52.83 4 102.66 4 154 C151.18 154 298.36 154 450 154 C450 104.17 450 54.34 450 3 C302.82 3 155.64 3 4 3 Z " fill="#EBEBEB" transform="translate(23,172)"/>
<path d="M0 0 C16.17 0 32.34 0 49 0 C49 11.55 49 23.1 49 35 C44.05 35.33 39.1 35.66 34 36 C31.49377801 38.50622199 31.7334139 39.35021151 31.68115234 42.81689453 C31.66128265 43.81778107 31.64141296 44.8186676 31.62094116 45.84988403 C31.60938995 46.93325043 31.59783875 48.01661682 31.5859375 49.1328125 C31.56657135 50.23978485 31.5472052 51.3467572 31.5272522 52.48727417 C31.46733246 56.03310369 31.42102127 59.57896545 31.375 63.125 C31.33683165 65.52475397 31.29778061 67.92449408 31.2578125 70.32421875 C31.15995468 76.21607488 31.08048326 82.10777807 31 88 C17.47 88 3.94 88 -10 88 C-10 87.34 -10 86.68 -10 86 C-9.2575 85.319375 -8.515 84.63875 -7.75 83.9375 C-2.15916487 78.41037809 -0.73673918 72.42530338 -0.5625 64.6875 C-0.88426674 54.32868682 -2.21444209 44.46265459 -10 37 C-12.28606541 35.38414654 -14.46218201 34.21815263 -17 33 C-17 32.67 -17 32.34 -17 32 C-16.01257813 31.95101562 -15.02515625 31.90203125 -14.0078125 31.8515625 C-12.72648437 31.77679688 -11.44515625 31.70203125 -10.125 31.625 C-8.21074219 31.52058594 -8.21074219 31.52058594 -6.2578125 31.4140625 C-2.91938301 31.32758894 -2.91938301 31.32758894 -1 29 C-0.62703444 25.99027343 -0.62703444 25.99027343 -0.5859375 22.4609375 C-0.53252197 20.70209229 -0.53252197 20.70209229 -0.47802734 18.90771484 C-0.44402832 17.41191895 -0.4100293 15.91612305 -0.375 14.375 C-0.189375 7.259375 -0.189375 7.259375 0 0 Z " fill="#FDFDFD" transform="translate(388,204)"/>
<path d="M0 0 C4.29 0 8.58 0 13 0 C12.28827605 7.36803748 11.46749647 14.71578505 10.5625 22.0625 C10.44068359 23.08666016 10.31886719 24.11082031 10.19335938 25.16601562 C10.06896484 26.17470703 9.94457031 27.18339844 9.81640625 28.22265625 C9.65313843 29.56469116 9.65313843 29.56469116 9.48657227 30.93383789 C8.84295026 34.98965766 7.89084027 38.99121878 7 43 C-1.25 43 -9.5 43 -18 43 C-15.525 40.525 -15.525 40.525 -13 38 C-8.28254671 33.16044792 -5.35823216 28.33506912 -3 22 C-2.47019531 20.63681641 -2.47019531 20.63681641 -1.9296875 19.24609375 C-0.80915873 15.33365925 -0.55068206 11.67300738 -0.375 7.625 C-0.33632813 6.88894531 -0.29765625 6.15289062 -0.2578125 5.39453125 C-0.16442002 3.59672594 -0.0811629 1.79839892 0 0 Z " fill="#F7F7F7" transform="translate(291,249)"/>
<path d="M0 0 C7.92 0 15.84 0 24 0 C22.48627871 7.56860645 20.85237145 15.01715295 19 22.5 C18.73960937 23.5828125 18.47921875 24.665625 18.2109375 25.78125 C17.82808594 27.328125 17.82808594 27.328125 17.4375 28.90625 C17.20933594 29.83759766 16.98117187 30.76894531 16.74609375 31.72851562 C16 34 16 34 14 36 C13.98582031 35.05640625 13.97164063 34.1128125 13.95703125 33.140625 C13.54269541 21.98715223 11.91920527 12.54420527 3.6875 4.3125 C2.99011719 3.68988281 2.29273438 3.06726563 1.57421875 2.42578125 C1.05472656 1.95527344 0.53523438 1.48476562 0 1 C0 0.67 0 0.34 0 0 Z " fill="#F9F9F9" transform="translate(277,204)"/>
<path d="M0 0 C2.375 0.75 2.375 0.75 3.375 1.75 C3.59332989 6.14998945 3.56079146 10.55534812 3.56030273 14.96020508 C3.56248751 17.17483782 3.58063531 19.38897123 3.59960938 21.60351562 C3.60254356 23.00520662 3.60452819 24.4069 3.60546875 25.80859375 C3.60957764 27.09048584 3.61368652 28.37237793 3.61791992 29.69311523 C3.375 32.75 3.375 32.75 1.375 34.75 C-1.25 34.875 -1.25 34.875 -3.625 34.75 C-6.95499718 29.32207973 -5.95288848 22.83981459 -5.9375 16.6875 C-5.95361328 15.39521484 -5.96972656 14.10292969 -5.98632812 12.77148438 C-5.98697266 11.53591797 -5.98761719 10.30035156 -5.98828125 9.02734375 C-5.99126221 7.89546631 -5.99424316 6.76358887 -5.99731445 5.59741211 C-5.625 2.75 -5.625 2.75 -4.26635742 0.84204102 C-2.625 -0.25 -2.625 -0.25 0 0 Z " fill="#040404" transform="translate(246.625,230.25)"/>
<path d="M0 0 C3.79165074 -0.0289337 7.58327327 -0.04677601 11.375 -0.0625 C12.45523437 -0.07087891 13.53546875 -0.07925781 14.6484375 -0.08789062 C16.1953125 -0.09272461 16.1953125 -0.09272461 17.7734375 -0.09765625 C18.72653809 -0.10289307 19.67963867 -0.10812988 20.66162109 -0.11352539 C23 0 23 0 25 1 C24.67 2.65 24.34 4.3 24 6 C15.96235969 8.07422976 8.27015524 8.2144997 0 8 C0 5.36 0 2.72 0 0 Z " fill="#0F0F0F" transform="translate(321,259)"/>
</svg>
